<svg xmlns="http://www.w3.org/2000/svg" width="1440" height="760" viewBox="0 0 1440 760" role="img" aria-label="IT设备管理平台首页工作台预览">
  <defs>
    <style>
      .bg{fill:#eef3f8}.panel{fill:#fff;stroke:#d9e2ec;stroke-width:1}.side{fill:#fff}.nav{fill:#eaf2ff}.title{fill:#17233c;font:bold 16px Arial,'Microsoft YaHei',sans-serif}.text{fill:#52627a;font:12px Arial,'Microsoft YaHei',sans-serif}.small{fill:#77879c;font:11px Arial,'Microsoft YaHei',sans-serif}.blue{fill:#2f7cf6}.green{fill:#12b981}.orange{fill:#f59e0b}.red{fill:#ef4444}.muted{fill:#f3f6fa}.line{fill:none;stroke:#e6edf5;stroke-width:1}.chart1{fill:none;stroke:#12b981;stroke-width:3}.chart2{fill:none;stroke:#3b82f6;stroke-width:3}.chart3{fill:none;stroke:#f59e0b;stroke-width:3}
    </style>
  </defs>
  <rect class="bg" width="1440" height="760"/>
  <rect class="side" width="150" height="760"/>
  <rect x="16" y="16" width="28" height="28" rx="6" fill="#50c3b8"/>
  <text x="52" y="27" class="blue" style="font:bold 14px Arial">Asset Ops</text>
  <text x="52" y="43" class="small">AIOps Console</text>
  <rect x="12" y="74" width="126" height="28" rx="6" class="nav"/>
  <text x="34" y="93" class="blue" style="font:bold 13px Arial,'Microsoft YaHei'">首页</text>
  <text x="18" y="136" class="title" style="font-size:13px">资产中心</text>
  <text x="38" y="168" class="text">设备资产</text>
  <text x="38" y="198" class="text">资产变更</text>
  <text x="18" y="240" class="title" style="font-size:13px">监控中心</text>
  <text x="38" y="272" class="text">服务器管理</text>
  <text x="38" y="302" class="text">监控数据</text>
  <text x="38" y="332" class="text">告警事件</text>
  <text x="38" y="362" class="text">告警规则</text>

  <rect x="150" y="0" width="1290" height="52" fill="#fff" stroke="#e4ebf3"/>
  <text x="194" y="24" class="title">IT设备管理平台</text>
  <text x="194" y="42" class="small">首页</text>
  <circle cx="1308" cy="26" r="11" fill="#eaf2ff"/>
  <circle cx="1338" cy="26" r="8" fill="#cbd5e1"/>
  <circle cx="1370" cy="26" r="11" fill="#50c3b8"/>
  <text x="1390" y="30" class="title" style="font-size:12px">若依</text>

  <rect x="170" y="76" width="890" height="270" rx="4" class="panel"/>
  <text x="188" y="105" class="title">资源趋势</text>
  <text x="188" y="123" class="small">最近采集窗口 CPU、内存、磁盘使用率</text>
  <rect x="958" y="92" width="82" height="24" rx="5" fill="#fff" stroke="#d9e2ec"/>
  <text x="976" y="109" class="text">查看监控数据</text>
  <line x1="205" y1="160" x2="1032" y2="160" class="line"/>
  <line x1="205" y1="198" x2="1032" y2="198" class="line"/>
  <line x1="205" y1="236" x2="1032" y2="236" class="line"/>
  <line x1="205" y1="274" x2="1032" y2="274" class="line"/>
  <polyline points="210,302 360,298 510,300 660,294 810,296 1028,292" class="chart1"/>
  <polyline points="210,304 360,302 510,302 660,300 810,302 1028,301" class="chart2"/>
  <polyline points="210,306 360,305 510,305 660,304 810,304 1028,303" class="chart3"/>
  <circle cx="572" cy="326" r="4" class="green"/><text x="582" y="330" class="small">CPU</text>
  <circle cx="620" cy="326" r="4" fill="#3b82f6"/><text x="630" y="330" class="small">内存</text>
  <circle cx="674" cy="326" r="4" class="orange"/><text x="684" y="330" class="small">磁盘</text>

  <rect x="1074" y="76" width="346" height="270" rx="4" class="panel"/>
  <text x="1092" y="105" class="title">服务器健康</text>
  <text x="1092" y="123" class="small">连接状态与监控状态</text>
  <circle cx="1252" cy="200" r="56" fill="none" stroke="#f59e0b" stroke-width="18"/>
  <path d="M1252 144a56 56 0 0 1 48 84" fill="none" stroke="#12b981" stroke-width="18"/>
  <path d="M1204 228a56 56 0 0 1 48-84" fill="none" stroke="#ef4444" stroke-width="18"/>
  <circle cx="1252" cy="200" r="38" fill="#fff"/>
  <circle cx="1094" cy="288" r="4" class="green"/><text x="1106" y="292" class="text">在线</text><text x="1386" y="292" class="title" style="font-size:13px">0</text>
  <circle cx="1094" cy="312" r="4" class="orange"/><text x="1106" y="316" class="text">离线</text><text x="1386" y="316" class="title" style="font-size:13px">0</text>
  <circle cx="1094" cy="336" r="4" class="red"/><text x="1106" y="340" class="text">异常</text><text x="1386" y="340" class="title" style="font-size:13px">0</text>

  <rect x="170" y="360" width="890" height="200" rx="4" class="panel"/>
  <text x="188" y="389" class="title">风险服务器</text>
  <text x="188" y="407" class="small">按活跃告警、离线状态和监控异常排序</text>
  <rect x="585" y="445" width="84" height="66" fill="#f4f7fb"/>
  <text x="574" y="528" class="small">暂无风险服务器</text>

  <rect x="1074" y="360" width="346" height="200" rx="4" class="panel"/>
  <text x="1092" y="389" class="title">告警闭环</text>
  <text x="1092" y="407" class="small">当前事件处理分布</text>
  <rect x="1092" y="432" width="142" height="58" rx="5" fill="#fff1f2"/><text x="1104" y="453" class="red">未处理</text><text x="1104" y="480" class="red" style="font:bold 28px Arial">0</text>
  <rect x="1246" y="432" width="142" height="58" rx="5" fill="#fff7ed"/><text x="1258" y="453" class="orange">处理中</text><text x="1258" y="480" class="orange" style="font:bold 28px Arial">0</text>
  <rect x="1092" y="500" width="142" height="44" rx="5" fill="#ecfdf5"/><text x="1104" y="526" class="green">已处理 0</text>
  <rect x="1246" y="500" width="142" height="44" rx="5" fill="#f1f5f9"/><text x="1258" y="526" class="text">已忽略 0</text>

  <rect x="170" y="576" width="430" height="150" rx="4" class="panel"/>
  <text x="188" y="605" class="title">实时告警</text>
  <text x="188" y="623" class="small">未处理事件优先展示</text>
  <text x="350" y="680" class="small">暂无待处理告警</text>

  <rect x="614" y="576" width="330" height="150" rx="4" class="panel"/>
  <text x="632" y="605" class="title">快捷入口</text>
  <rect x="646" y="636" width="120" height="34" rx="4" class="muted"/><text x="686" y="658" class="title" style="font-size:12px">设备资产</text>
  <rect x="790" y="636" width="120" height="34" rx="4" class="muted"/><text x="828" y="658" class="title" style="font-size:12px">服务器管理</text>
  <rect x="646" y="682" width="120" height="34" rx="4" class="muted"/><text x="686" y="704" class="title" style="font-size:12px">告警事件</text>
  <rect x="790" y="682" width="120" height="34" rx="4" class="muted"/><text x="828" y="704" class="title" style="font-size:12px">监控数据</text>

  <rect x="958" y="576" width="462" height="150" rx="4" class="panel"/>
  <text x="976" y="605" class="title">最近资产变更</text>
  <text x="1130" y="680" class="small">暂无资产变更</text>
</svg>
